<?xml version="1.0" encoding="UTF-8"?>
<svg width="64" height="64" viewBox="0 0 64 64" xmlns="http://www.w3.org/2000/svg">
  <!-- 背景圆形 -->
  <circle cx="32" cy="32" r="30" fill="#0077ff" />
  <circle cx="32" cy="32" r="26" fill="#e3f2fd" />
  
  <!-- 电脑主机 -->
  <rect x="20" y="16" width="24" height="22" rx="2" fill="#0077ff" />
  <rect x="22" y="18" width="20" height="16" rx="1" fill="#ffffff" />
  
  <!-- 显示器内容 -->
  <rect x="24" y="20" width="16" height="2" rx="1" fill="#9ddcff" />
  <rect x="24" y="24" width="10" height="1" rx="0.5" fill="#9ddcff" />
  <rect x="24" y="27" width="12" height="1" rx="0.5" fill="#9ddcff" />
  <rect x="24" y="30" width="8" height="1" rx="0.5" fill="#9ddcff" />
  
  <!-- 键盘 -->
  <rect x="16" y="40" width="32" height="3" rx="1.5" fill="#0077ff" />
  <rect x="18" y="39" width="28" height="2" rx="1" fill="#ffffff" />
  
  <!-- 工具 -->
  <g transform="translate(40, 24) rotate(45)">
    <rect x="-2" y="-10" width="4" height="16" rx="1" fill="#ff6b6b" />
    <circle cx="0" cy="8" r="3" fill="#ff6b6b" />
  </g>
  
  <!-- 小设计细节 -->
  <circle cx="32" cy="50" r="2" fill="#0077ff" />
</svg> 